<svg width="26" height="27" viewBox="0 0 26 27" fill="none" xmlns="http://www.w3.org/2000/svg">
<path d="M4.875 2.53125V24.4688H21.125V2.53125H4.875ZM6.5 4.21875H19.5V22.7812H6.5V4.21875ZM12.5174 8.72775C12.2501 8.72491 11.9901 8.81789 11.7812 8.991C11.5749 9.17241 11.4806 9.39769 11.4254 9.62381C11.3141 10.0778 11.3466 10.5519 11.4514 11.0751C11.5732 11.6868 11.9283 12.4251 12.2127 13.1313C12.0681 13.7751 12.0307 14.3421 11.8064 15.0027C11.6155 15.5714 11.3717 15.8971 11.1483 16.4008C10.6364 16.6016 10.0271 16.7214 9.62406 16.9813C9.19019 17.2614 8.80994 17.5719 8.58406 18.0107C8.35656 18.4469 8.38094 19.0654 8.684 19.5126C8.83431 19.7463 9.03094 19.9319 9.29338 20.0399C9.55662 20.1479 9.84181 20.1521 10.0815 20.0652C10.5592 19.8948 10.8989 19.5126 11.2231 19.0645C11.5237 18.6494 11.739 17.944 12.0112 17.377C12.4207 17.2353 12.7164 17.0564 13.1528 16.9552C13.611 16.8488 13.9165 16.9003 14.3471 16.8497C14.5316 17.0674 14.6884 17.415 14.8793 17.5871C15.2669 17.9356 15.6918 18.214 16.1996 18.2453C16.7083 18.279 17.2153 17.9499 17.4948 17.4555H17.5207V17.4285C17.6442 17.2032 17.7296 16.9619 17.7239 16.6902C17.719 16.4202 17.5857 16.1384 17.4192 15.9528C17.0861 15.5815 16.6611 15.4887 16.2004 15.4254C15.847 15.3782 15.3514 15.5098 14.9313 15.5318C14.5641 15.0289 14.1976 14.6492 13.8645 14.0029C13.6857 13.6536 13.6354 13.3557 13.4843 13.0005C13.6004 12.4268 13.8336 11.7889 13.8645 11.2877C13.9035 10.6802 13.8808 10.1571 13.7126 9.67866C13.6269 9.42324 13.4784 9.19551 13.2819 9.018C13.0742 8.8389 12.8148 8.73703 12.545 8.72859H12.519L12.5174 8.72775ZM13.0504 14.9766C13.1966 15.2432 13.377 15.4128 13.533 15.6625C13.3039 15.7047 13.13 15.6608 12.8993 15.7148C12.8586 15.7233 12.8359 15.757 12.7969 15.768C12.8432 15.6372 12.9041 15.5571 12.9496 15.4246C13.0016 15.271 13.0016 15.1318 13.0504 14.9766ZM16.0469 16.6894C16.3207 16.7273 16.4166 16.7797 16.4531 16.7957C16.4474 16.8092 16.4629 16.8041 16.4531 16.8227C16.3532 16.9957 16.3394 16.9847 16.2744 16.9805C16.2208 16.9771 16.0144 16.8607 15.8194 16.7164C15.8762 16.7214 15.9949 16.6826 16.0469 16.6911V16.6894ZM10.3594 18.009C10.3147 18.0765 10.2765 18.2385 10.2326 18.2984C9.98481 18.641 9.7565 18.8013 9.69963 18.8258C9.68906 18.8148 9.71587 18.8258 9.69963 18.8004H9.67362C9.58994 18.6764 9.61513 18.7287 9.67362 18.6148C9.73294 18.5017 9.9255 18.2756 10.2586 18.0613C10.283 18.0461 10.3342 18.0242 10.3594 18.009Z" fill="#DB2323"/>
</svg>
